<svg xmlns="http://www.w3.org/2000/svg" viewBox="0 0 500 500"><g id="freepik--background-complete--inject-99"><rect y="382.4" width="500" height="0.25" style="fill:#ebebeb"></rect><path d="M237,337.8H43.91a5.71,5.71,0,0,1-5.7-5.71V60.66A5.71,5.71,0,0,1,43.91,55H237a5.71,5.71,0,0,1,5.71,5.71V332.09A5.71,5.71,0,0,1,237,337.8ZM43.91,55.2a5.46,5.46,0,0,0-5.45,5.46V332.09a5.46,5.46,0,0,0,5.45,5.46H237a5.47,5.47,0,0,0,5.46-5.46V60.66A5.47,5.47,0,0,0,237,55.2Z" style="fill:#ebebeb"></path><path d="M453.31,337.8H260.21a5.72,5.72,0,0,1-5.71-5.71V60.66A5.72,5.72,0,0,1,260.21,55h193.1A5.71,5.71,0,0,1,459,60.66V332.09A5.71,5.71,0,0,1,453.31,337.8ZM260.21,55.2a5.47,5.47,0,0,0-5.46,5.46V332.09a5.47,5.47,0,0,0,5.46,5.46h193.1a5.47,5.47,0,0,0,5.46-5.46V60.66a5.47,5.47,0,0,0-5.46-5.46Z" style="fill:#ebebeb"></path><rect x="418.33" y="391.92" width="31.57" height="0.25" style="fill:#ebebeb"></rect><rect x="301.93" y="389.21" width="33.41" height="0.25" style="fill:#ebebeb"></rect><rect x="396.59" y="401.21" width="62.43" height="0.25" style="fill:#ebebeb"></rect><rect x="52.46" y="399.53" width="19.23" height="0.25" style="fill:#ebebeb"></rect><rect x="80.6" y="399.53" width="30.29" height="0.25" style="fill:#ebebeb"></rect><rect x="189.58" y="395.31" width="54.56" height="0.25" style="fill:#ebebeb"></rect><polygon points="272.26 118.13 215.28 175.12 215.28 364.91 415.27 364.91 415.27 118.13 272.26 118.13" style="fill:#fff"></polygon><path d="M415.27,365.45h-200a.54.54,0,0,1-.54-.54V175.12a.53.53,0,0,1,.16-.38l57-57a.57.57,0,0,1,.38-.16h143a.54.54,0,0,1,.54.54V364.91A.54.54,0,0,1,415.27,365.45Zm-199.45-1.07H414.73V118.67H272.49l-56.67,56.67Z" style="fill:#e0e0e0"></path><polygon points="215.28 175.12 275.07 182.83 272.26 118.13 215.28 175.12" style="fill:#e6e6e6"></polygon><polygon points="215.28 175.12 272.26 175.12 272.26 118.13 215.28 175.12" style="fill:#fff"></polygon><path d="M272.26,175.65h-57a.54.54,0,0,1-.5-.33.52.52,0,0,1,.12-.58l57-57a.56.56,0,0,1,.59-.12.55.55,0,0,1,.33.5v57A.54.54,0,0,1,272.26,175.65Zm-55.68-1.07h55.15V119.43Z" style="fill:#e0e0e0"></path><path d="M326.84,257.19l34-34a8.18,8.18,0,1,0-11.57-11.57l-34,34-34-34a8.18,8.18,0,0,0-11.57,11.57l34,34-34,34a8.18,8.18,0,0,0,11.57,11.57l34-34,34,34a8.18,8.18,0,1,0,11.57-11.57Z" style="fill:#f0f0f0"></path><path d="M223,229h0a10.23,10.23,0,0,1-14.46,0l-32.81-32.82,14.46-14.46L223,214.58A10.23,10.23,0,0,1,223,229Z" style="fill:#f0f0f0"></path><path d="M176,187.63h20.45a0,0,0,0,1,0,0v1.89a7.39,7.39,0,0,1-7.39,7.39h-5.67a7.39,7.39,0,0,1-7.39-7.39v-1.89A0,0,0,0,1,176,187.63Z" transform="translate(-81.4 188.02) rotate(-45)" style="fill:#e0e0e0"></path><path d="M84.71,90.71a71,71,0,1,0,100.46,0A71,71,0,0,0,84.71,90.71Zm96.36,96.36a65.23,65.23,0,1,1,0-92.25A65.23,65.23,0,0,1,181.07,187.07Z" style="fill:#e0e0e0"></path><path d="M172.26,180.65a2.38,2.38,0,0,1-1.68-4.06,50.48,50.48,0,0,0,0-71.29,2.38,2.38,0,1,1,3.36-3.36,55.22,55.22,0,0,1,0,78A2.38,2.38,0,0,1,172.26,180.65Z" style="fill:#e0e0e0"></path><path d="M83.58,155.53a2.37,2.37,0,0,1-2.31-1.83,55.37,55.37,0,0,1,7.6-43.11,2.38,2.38,0,0,1,4,2.62,50.65,50.65,0,0,0-7,39.4,2.36,2.36,0,0,1-1.76,2.86A2.64,2.64,0,0,1,83.58,155.53Z" style="fill:#e0e0e0"></path><path d="M97.62,180.65a2.38,2.38,0,0,1-1.68-.7,54.8,54.8,0,0,1-10.5-14.64,2.37,2.37,0,0,1,4.26-2.1,50.51,50.51,0,0,0,9.6,13.38,2.38,2.38,0,0,1,0,3.36A2.41,2.41,0,0,1,97.62,180.65Z" style="fill:#e0e0e0"></path><path d="M196.15,319.72h13.22a0,0,0,0,1,0,0v30.7a5.92,5.92,0,0,1-5.92,5.92h-1.39a5.92,5.92,0,0,1-5.92-5.92v-30.7a0,0,0,0,1,0,0Z" transform="translate(298.41 -44.37) rotate(45)" style="fill:#f0f0f0"></path><path d="M207,324.2H220.2a0,0,0,0,1,0,0v.63a5.37,5.37,0,0,1-5.37,5.37h-2.48a5.37,5.37,0,0,1-5.37-5.37v-.63A0,0,0,0,1,207,324.2Z" transform="translate(293.92 -55.19) rotate(45)" style="fill:#e0e0e0"></path><path d="M284.35,269.7l-21.9,21.89A13.74,13.74,0,0,0,281.88,311l8.86-8.85A47.07,47.07,0,0,0,284.35,269.7Z" style="fill:#f0f0f0"></path><path d="M292.6,290.82a45.94,45.94,0,1,0-42.64,49A45.94,45.94,0,0,0,292.6,290.82Zm-87.91,6.12a42.18,42.18,0,1,1,45,39.15A42.18,42.18,0,0,1,204.69,296.94Z" style="fill:#e0e0e0"></path><path d="M223.38,320.91a35.58,35.58,0,0,1-12.19-24.42,1.54,1.54,0,1,1,3.07-.21A32.64,32.64,0,0,0,249,326.53a1.53,1.53,0,1,1,.21,3.06A35.53,35.53,0,0,1,223.38,320.91Z" style="fill:#e0e0e0"></path><path d="M278.64,286a1.51,1.51,0,0,1-.47-.75,32.72,32.72,0,0,0-16.27-20.1,1.54,1.54,0,0,1,1.42-2.73,35.82,35.82,0,0,1,17.81,22,1.53,1.53,0,0,1-1.07,1.89A1.56,1.56,0,0,1,278.64,286Z" style="fill:#e0e0e0"></path><path d="M243.39,261.13a1.56,1.56,0,0,1-.52-1.06,1.54,1.54,0,0,1,1.42-1.64,35.88,35.88,0,0,1,11.6,1.09,1.54,1.54,0,1,1-.79,3,32.48,32.48,0,0,0-10.59-1A1.58,1.58,0,0,1,243.39,261.13Z" style="fill:#e0e0e0"></path></g><g id="freepik--Shadow--inject-99"><ellipse id="freepik--path--inject-99" cx="250" cy="416.24" rx="193.89" ry="11.32" style="fill:#f5f5f5"></ellipse></g></svg>